<svg width="155" height="155" viewBox="0 0 155 155" fill="none" xmlns="http://www.w3.org/2000/svg">
<g filter="url(#filter0_d_658_14260)">
<rect x="44" y="18.1467" width="54.6589" height="54.6589" rx="27.3295" transform="rotate(-15 44 18.1467)" fill="#FFF3F3"/>
</g>
<path d="M92.7858 33.2488C93.5941 36.2654 93.4897 39.454 92.4859 42.4113C91.482 45.3686 89.6237 47.9618 87.1461 49.863C84.6684 51.7642 81.6826 52.8879 78.5662 53.0922C75.4499 53.2964 72.3429 52.572 69.6383 51.0105C66.9337 49.449 64.7528 47.1205 63.3716 44.3195C61.9903 41.5186 61.4706 38.3709 61.8782 35.2746C62.2859 32.1783 63.6025 29.2724 65.6617 26.9243C67.7208 24.5763 70.43 22.8916 73.4467 22.0833L77.5335 37.3356L92.7858 33.2488Z" fill="#F15060"/>
<path d="M75.1646 19.1073C77.1675 18.5706 79.2566 18.4336 81.3125 18.7043C83.3683 18.975 85.3508 19.6479 87.1466 20.6847C88.9424 21.7215 90.5164 23.1019 91.7787 24.747C93.0411 26.3921 93.967 28.2698 94.5037 30.2727L79.2514 34.3596L75.1646 19.1073Z" fill="#FF7482"/>
<defs>
<filter id="filter0_d_658_14260" x="0.135742" y="0.135254" width="154.672" height="154.673" filterUnits="userSpaceOnUse" color-interpolation-filters="sRGB">
<feFlood flood-opacity="0" result="BackgroundImageFix"/>
<feColorMatrix in="SourceAlpha" type="matrix" values="0 0 0 0 0 0 0 0 0 0 0 0 0 0 0 0 0 0 127 0" result="hardAlpha"/>
<feMorphology radius="20" operator="erode" in="SourceAlpha" result="effect1_dropShadow_658_14260"/>
<feOffset dy="40"/>
<feGaussianBlur stdDeviation="35"/>
<feColorMatrix type="matrix" values="0 0 0 0 0 0 0 0 0 0 0 0 0 0 0 0 0 0 0.2 0"/>
<feBlend mode="normal" in2="BackgroundImageFix" result="effect1_dropShadow_658_14260"/>
<feBlend mode="normal" in="SourceGraphic" in2="effect1_dropShadow_658_14260" result="shape"/>
</filter>
</defs>
</svg>
